<svg id="Layer_1" data-name="Layer 1" xmlns="http://www.w3.org/2000/svg" viewBox="0 0 512 512"><defs><style>.cls-1{fill:#f5ba3d;}.cls-2{fill:#ef9325;}.cls-3{fill:#f7434c;}.cls-4{fill:#db2e37;}</style></defs><title>bdayhat</title><path class="cls-1" d="M427.13,483.64a7.92,7.92,0,0,0-.55-3.14l-.09-.24c-.08-.22-.16-.43-.25-.63L263.53,60.35a8.07,8.07,0,0,0-15.06,0L85.76,479.63c-.09.2-.17.41-.25.63l-.09.24a7.89,7.89,0,0,0-.54,3c0,.13,0,.26,0,.39,0,10.14,13.06,13.94,18.64,15.56,8.62,2.51,20.81,4.74,36.21,6.64C170.83,509.89,212.13,512,256,512s85.17-2.11,116.28-5.93c33.86-4.17,54.85-9.33,54.85-22.2Z"/><path class="cls-2" d="M427.13,483.64a8,8,0,0,0-.54-3.13l-.1-.25c-.07-.21-.15-.41-.24-.62L263.53,60.35a8.07,8.07,0,0,0-15.06,0l-13,33.59L394.35,502.79c20.66-3.82,32.78-9.15,32.78-18.92Z"/><path class="cls-3" d="M106.29,500.2l2.37.6h0l2.61.6.53.12,2.73.58h0l.75.15.94.19c1.89.37,3.88.74,6,1.09l.4.07,3,.5.17,0,3.42.53h.09l.12,0,3.14.45.68.09,3.46.47h0l3.41.43,3.14.36,1.93.23,1.6.17,3.76.4,2.13.22,4.53.44,3.35.3,2.38.2,3.52.29,1.45.12q3.83.3,7.8.57l.76.05h.09l4.45.29h.35l.47,0a7.83,7.83,0,0,0,1.67-.18c57.66-12.21,142.58-33.89,219.76-67.87l6.88-3.59-15.87-40.9L381.64,364.7l-7.9,3.84c-100.82,49.3-224.92,75.59-273.59,84.6l-4.35.61-1.71,4.41h0l-7.8,20.09-.53,1.37c-.09.21-.17.42-.25.64l-.09.24a7.86,7.86,0,0,0-.54,3c0,.13,0,.26,0,.39,0,.32,0,.64,0,.95,0,.11,0,.21,0,.31s0,.41.08.62,0,.23.07.34.07.36.12.54.07.23.1.35.1.33.16.49.08.23.13.35.12.31.19.46.11.23.16.34.15.3.23.44l.18.32.26.43.2.3.3.41.21.28c.11.13.22.27.34.4s.14.17.22.25.24.27.37.4l.23.23.41.39.23.21c.14.13.3.26.45.38l.21.18.51.39.19.15.57.4.16.11.65.42.1.06.76.46h0l.6.33.11.06A41.38,41.38,0,0,0,99,498l1.18.4.14,0,1.06.33.17,0,1,.3.16,0,.86.25c.71.21,1.46.42,2.22.62Z"/><path class="cls-3" d="M127.75,406.47c64-15.41,155.84-42.37,230.27-83.25l6.36-3-2.71-7h0l-23.68-61-2.64-6.81-1.07-2.75-7.12,5c-45.25,28.53-105,54.17-177.62,76.17l-3.61.74-33.12,85.34Z"/><path class="cls-3" d="M315.76,194.92,304,164.71,295.2,142l-3.39-8.73L287,120.82l-2.87-7.39-8.52,8.11c-17.95,15.87-40.35,31.24-66.59,45.68a5.5,5.5,0,0,0-.48.28l-2.13,1.23-3,7.86h0l-26.3,67.75L168,267.81l-1.26,3.27,15.62-4.92a8.29,8.29,0,0,0,.93-.29c51.64-20.19,94.59-42.69,127.67-66.88Z"/><path class="cls-3" d="M300.81,55.19h-26l25-26.39A8.08,8.08,0,1,0,288,17.69L264.08,43V8.08a8.08,8.08,0,1,0-16.16,0V43L224,17.69A8.08,8.08,0,1,0,212.27,28.8l25,26.39H211.19a8.08,8.08,0,1,0,0,16.16h89.62a8.08,8.08,0,0,0,0-16.16Z"/><path class="cls-4" d="M295.2,142l-3.39-8.73L287,120.82l-2.87-7.39-8.52,8.11q-10.28,9.09-22.48,17.94l30.26,77.85q14.72-9,27.52-18.34l4.85-4.07L304,164.71Z"/><path class="cls-4" d="M338,252.21l-2.64-6.81-1.07-2.75-7.12,5q-12.32,7.76-26.05,15.23l29,74.65c9.5-4.58,18.83-9.35,27.9-14.33l6.36-3-2.71-7Z"/><path class="cls-4" d="M381.64,364.7l-7.9,3.85C365,372.83,356,376.94,347,380.89l28.22,72.58c9.43-3.73,18.82-7.63,28.09-11.71l6.88-3.59-15.87-40.89Z"/></svg>