<svg xmlns="http://www.w3.org/2000/svg" xmlns:xlink="http://www.w3.org/1999/xlink" viewBox="0 0 78.75 96.54"><defs><style>.cls-1{fill:url(#linear-gradient);}.cls-2{fill:url(#linear-gradient-2);}.cls-3{fill:url(#linear-gradient-3);}.cls-4{fill:url(#linear-gradient-4);}.cls-5{fill:url(#linear-gradient-5);}.cls-6{fill:url(#linear-gradient-6);}.cls-7{fill:url(#linear-gradient-7);}.cls-8{fill:url(#linear-gradient-8);}.cls-9{fill:url(#linear-gradient-9);}.cls-10{fill:url(#linear-gradient-10);}.cls-11{fill:url(#linear-gradient-11);}.cls-12{fill:url(#linear-gradient-12);}.cls-13{fill:url(#linear-gradient-13);}.cls-14{fill:url(#linear-gradient-14);}.cls-15{fill:url(#linear-gradient-15);}.cls-16{fill:url(#linear-gradient-16);}.cls-17{fill:url(#linear-gradient-17);}.cls-18{fill:url(#linear-gradient-18);}.cls-19{fill:url(#linear-gradient-19);}.cls-20{fill:url(#linear-gradient-20);}.cls-21{fill:url(#linear-gradient-21);}.cls-22{fill:url(#linear-gradient-22);}.cls-23{fill:url(#linear-gradient-23);}.cls-24{fill:url(#linear-gradient-24);}.cls-25{fill:url(#linear-gradient-25);}.cls-26{fill:url(#linear-gradient-26);}.cls-27{fill:url(#linear-gradient-27);}.cls-28{fill:url(#linear-gradient-28);}.cls-29{fill:url(#linear-gradient-29);}.cls-30{fill:url(#linear-gradient-30);}.cls-31{fill:url(#linear-gradient-31);}.cls-32{fill:url(#linear-gradient-32);}.cls-33{fill:url(#linear-gradient-33);}.cls-34{fill:url(#linear-gradient-34);}.cls-35{fill:url(#linear-gradient-35);}.cls-36{fill:url(#linear-gradient-36);}.cls-37{fill:url(#linear-gradient-37);}.cls-38{fill:url(#linear-gradient-38);}.cls-39{fill:url(#linear-gradient-39);}.cls-40{fill:url(#linear-gradient-40);}.cls-41{fill:url(#linear-gradient-41);}.cls-42{fill:url(#linear-gradient-42);}.cls-43{fill:url(#linear-gradient-43);}.cls-44{fill:url(#linear-gradient-44);}.cls-45{fill:url(#linear-gradient-45);}.cls-46{fill:url(#linear-gradient-46);}.cls-47{fill:url(#linear-gradient-47);}.cls-48{fill:url(#linear-gradient-48);}.cls-49{fill:url(#linear-gradient-49);}.cls-50{fill:url(#linear-gradient-50);}.cls-51{fill:url(#linear-gradient-51);}.cls-52{fill:url(#linear-gradient-52);}.cls-53{fill:url(#linear-gradient-53);}.cls-54{fill:url(#linear-gradient-54);}.cls-55{fill:url(#linear-gradient-55);}.cls-56{fill:url(#linear-gradient-56);}.cls-57{fill:url(#linear-gradient-57);}.cls-58{fill:url(#linear-gradient-58);}.cls-59{fill:url(#linear-gradient-59);}.cls-60{fill:url(#linear-gradient-60);}.cls-61{fill:url(#linear-gradient-61);}.cls-62{fill:url(#linear-gradient-62);}.cls-63{fill:url(#linear-gradient-63);}.cls-64{fill:url(#linear-gradient-64);}.cls-65{fill:url(#linear-gradient-65);}.cls-66{fill:url(#linear-gradient-66);}.cls-67{fill:url(#linear-gradient-67);}.cls-68{fill:url(#linear-gradient-68);}.cls-69{fill:url(#linear-gradient-69);}.cls-70{fill:url(#linear-gradient-70);}.cls-71{fill:url(#linear-gradient-71);}.cls-72{fill:url(#linear-gradient-72);}.cls-73{fill:url(#linear-gradient-73);}.cls-74{fill:url(#linear-gradient-74);}.cls-75{fill:url(#linear-gradient-75);}.cls-76{fill:url(#linear-gradient-76);}.cls-77{fill:url(#linear-gradient-77);}.cls-78{fill:url(#linear-gradient-78);}.cls-79{fill:url(#linear-gradient-79);}.cls-80{fill:url(#linear-gradient-80);}.cls-81{fill:url(#linear-gradient-81);}.cls-82{fill:url(#linear-gradient-82);}.cls-83{fill:url(#linear-gradient-83);}.cls-84{fill:url(#linear-gradient-84);}.cls-85{fill:url(#linear-gradient-85);}.cls-86{fill:url(#linear-gradient-86);}.cls-87{fill:url(#linear-gradient-87);}.cls-88{fill:url(#linear-gradient-88);}.cls-89{fill:url(#linear-gradient-89);}.cls-90{fill:url(#linear-gradient-90);}.cls-91{fill:url(#linear-gradient-91);}.cls-92{fill:url(#linear-gradient-92);}.cls-93{fill:url(#linear-gradient-93);}.cls-94{fill:url(#linear-gradient-94);}.cls-95{fill:url(#linear-gradient-95);}.cls-96{fill:url(#linear-gradient-96);}.cls-97{fill:url(#linear-gradient-97);}</style><linearGradient id="linear-gradient" x1="-10045.79" y1="-9864.7" x2="-10046.16" y2="-9866.44" gradientTransform="matrix(0.09, -0.61, 0.61, 0.09, 7019.84, -5219.88)" gradientUnits="userSpaceOnUse"><stop offset="0" stop-color="#400300"/><stop offset="0.07" stop-color="#750300"/><stop offset="0.14" stop-color="#a50300"/><stop offset="0.21" stop-color="#c80300"/><stop offset="0.26" stop-color="#dd0300"/><stop offset="0.3" stop-color="#e50300"/><stop offset="0.34" stop-color="#ee190c"/><stop offset="0.39" stop-color="#f82e18"/><stop offset="0.45" stop-color="#fd3c20"/><stop offset="0.49" stop-color="#ff4022"/><stop offset="0.54" stop-color="#fd3b1f"/><stop offset="0.6" stop-color="#f72e18"/><stop offset="0.66" stop-color="#ee180c"/><stop offset="0.7" stop-color="#e50300"/><stop offset="0.73" stop-color="#db0300"/><stop offset="0.79" stop-color="#c20300"/><stop offset="0.87" stop-color="#980300"/><stop offset="0.95" stop-color="#5e0300"/><stop offset="1" stop-color="#3b0300"/></linearGradient><linearGradient id="linear-gradient-2" x1="-10778.47" y1="-9126" x2="-10777.13" y2="-9126.38" gradientTransform="translate(6779.39 -3381.06) rotate(-67.09) scale(0.54)" gradientUnits="userSpaceOnUse"><stop offset="0" stop-color="#005200"/><stop offset="0.19" stop-color="#00890b"/><stop offset="0.31" stop-color="#00a912"/><stop offset="0.33" stop-color="#11ad12"/><stop offset="0.37" stop-color="#3ab512"/><stop offset="0.41" stop-color="#5abc12"/><stop offset="0.44" stop-color="#71c112"/><stop offset="0.48" stop-color="#7ec412"/><stop offset="0.51" stop-color="#83c512"/><stop offset="0.55" stop-color="#7fc412"/><stop offset="0.59" stop-color="#72c112"/><stop offset="0.63" stop-color="#5ebd12"/><stop offset="0.67" stop-color="#41b712"/><stop offset="0.72" stop-color="#1caf12"/><stop offset="0.74" stop-color="#00a912"/><stop offset="0.78" stop-color="#009e10"/><stop offset="0.86" stop-color="#00800c"/><stop offset="0.95" stop-color="#005004"/><stop offset="1" stop-color="#003400"/></linearGradient><linearGradient id="linear-gradient-3" x1="-9616.33" y1="-7393.92" x2="-9615.95" y2="-7391.62" gradientTransform="translate(8479.12 402.8) rotate(-35.07) scale(0.7)" xlink:href="#linear-gradient"/><linearGradient id="linear-gradient-4" x1="-8466.11" y1="-6784.11" x2="-8466.48" y2="-6785.85" gradientTransform="matrix(0.85, -0.15, 0.15, 0.85, 8242.44, 4537)" xlink:href="#linear-gradient-2"/><linearGradient id="linear-gradient-5" x1="-4157.94" y1="-8275.68" x2="-4158.12" y2="-8273.86" gradientTransform="translate(-6904.47 667.07) rotate(111.65) scale(0.75)" xlink:href="#linear-gradient-2"/><linearGradient id="linear-gradient-6" x1="-5884.68" y1="-8820.33" x2="-5884.7" y2="-8818.29" gradientTransform="translate(-20905.25 -1203.88) rotate(127.23) scale(1.98)" gradientUnits="userSpaceOnUse"><stop offset="0" stop-color="#920040"/><stop offset="0.05" stop-color="#ae0052"/><stop offset="0.12" stop-color="#d10069"/><stop offset="0.19" stop-color="#ea007a"/><stop offset="0.25" stop-color="#fa0084"/><stop offset="0.3" stop-color="#ff0087"/><stop offset="0.35" stop-color="#ff1a8b"/><stop offset="0.43" stop-color="#ff3f92"/><stop offset="0.5" stop-color="#ff5696"/><stop offset="0.55" stop-color="#ff5e97"/><stop offset="0.58" stop-color="#ff5696"/><stop offset="0.64" stop-color="#ff3f92"/><stop offset="0.71" stop-color="#ff198b"/><stop offset="0.75" stop-color="#ff0087"/><stop offset="0.79" stop-color="#fa0084"/><stop offset="0.84" stop-color="#ea007a"/><stop offset="0.9" stop-color="#d10069"/><stop offset="0.96" stop-color="#ae0053"/><stop offset="1" stop-color="#920040"/></linearGradient><linearGradient id="linear-gradient-7" x1="-7951.03" y1="-10035" x2="-7951.05" y2="-10032.96" gradientTransform="matrix(-0.48, -1.11, 1.11, -0.48, 7294.28, -13619.35)" xlink:href="#linear-gradient"/><linearGradient id="linear-gradient-8" x1="-8163.89" y1="-11214" x2="-8162.5" y2="-11214" gradientTransform="translate(3427.18 -9539.49) rotate(-124.61) scale(0.73)" xlink:href="#linear-gradient-6"/><linearGradient id="linear-gradient-9" x1="-8005.24" y1="-10938.99" x2="-8005.42" y2="-10937.18" gradientTransform="matrix(-0.47, -0.68, 0.68, -0.47, 3695.78, -10515.1)" xlink:href="#linear-gradient-6"/><linearGradient id="linear-gradient-10" x1="-6122.55" y1="-12548.47" x2="-6122.92" y2="-12550.21" gradientTransform="matrix(-0.5, -0.16, 0.16, -0.5, -967.57, -7232.66)" xlink:href="#linear-gradient-6"/><linearGradient id="linear-gradient-11" x1="-7809.76" y1="-12695.42" x2="-7809.46" y2="-12693.63" gradientTransform="matrix(-0.37, -0.34, 0.34, -0.37, 1394.33, -7334.28)" gradientUnits="userSpaceOnUse"><stop offset="0" stop-color="#0038ab"/><stop offset="0.11" stop-color="#0062c9"/><stop offset="0.27" stop-color="#0097f0"/><stop offset="0.35" stop-color="#00acff"/><stop offset="0.4" stop-color="#00bfff"/><stop offset="0.47" stop-color="#00d2ff"/><stop offset="0.52" stop-color="#00d9ff"/><stop offset="0.66" stop-color="#00b8ff"/><stop offset="0.71" stop-color="#00acff"/><stop offset="0.76" stop-color="#00a2f8"/><stop offset="0.83" stop-color="#0086e3"/><stop offset="0.93" stop-color="#0059c3"/><stop offset="1" stop-color="#0038ab"/></linearGradient><linearGradient id="linear-gradient-12" x1="-8932.67" y1="-6878.63" x2="-8932.69" y2="-6876.59" gradientTransform="translate(8291.84 2831.53) rotate(-18.73) scale(0.78)" xlink:href="#linear-gradient-2"/><linearGradient id="linear-gradient-13" x1="-5721.3" y1="-11529.92" x2="-5719.97" y2="-11530.29" gradientTransform="matrix(-0.66, -0.09, 0.09, -0.66, -2799.66, -8152.74)" xlink:href="#linear-gradient-6"/><linearGradient id="linear-gradient-14" x1="-9403.36" y1="-6998.58" x2="-9403.1" y2="-6997.15" gradientTransform="translate(8074.01 1489.85) rotate(-26.45) scale(0.7)" gradientUnits="userSpaceOnUse"><stop offset="0" stop-color="#ab3c00"/><stop offset="0.34" stop-color="#ffc700"/><stop offset="0.37" stop-color="#ffcd17"/><stop offset="0.41" stop-color="#ffd533"/><stop offset="0.44" stop-color="#ffda46"/><stop offset="0.48" stop-color="#ffdd52"/><stop offset="0.52" stop-color="#ffde56"/><stop offset="0.55" stop-color="#ffdd51"/><stop offset="0.59" stop-color="#ffd943"/><stop offset="0.62" stop-color="#ffd32b"/><stop offset="0.66" stop-color="#ffca0b"/><stop offset="0.67" stop-color="#ffc700"/><stop offset="1" stop-color="#ab3c00"/></linearGradient><linearGradient id="linear-gradient-15" x1="-8497.48" y1="-10648.02" x2="-8496.09" y2="-10648.02" gradientTransform="translate(5490.23 -9682.62) rotate(-112.17) scale(0.82)" xlink:href="#linear-gradient"/><linearGradient id="linear-gradient-16" x1="-8392.23" y1="-8337.21" x2="-8392.59" y2="-8338.95" gradientTransform="matrix(0.92, -1.03, 1.03, 0.92, 16340.9, -949.05)" xlink:href="#linear-gradient"/><linearGradient id="linear-gradient-17" x1="-3768.67" y1="-7487.99" x2="-3766.81" y2="-7487.71" gradientTransform="matrix(-0.1, 0.61, -0.61, -0.1, -4950.21, 1552.55)" xlink:href="#linear-gradient-6"/><linearGradient id="linear-gradient-18" x1="-5612" y1="-9189.95" x2="-5611.74" y2="-9188.53" gradientTransform="translate(-14937.93 -5432.21) rotate(141.62) scale(1.48)" xlink:href="#linear-gradient-11"/><linearGradient id="linear-gradient-19" x1="-5658.88" y1="-9392" x2="-5659.07" y2="-9390.19" gradientTransform="translate(-13726.42 -7491.98) rotate(149.82) scale(1.43)" xlink:href="#linear-gradient-11"/><linearGradient id="linear-gradient-20" x1="-5099.96" y1="-8132.82" x2="-5099.69" y2="-8131.39" gradientTransform="translate(-9959.11 3462.42) rotate(103.3) scale(1.1)" xlink:href="#linear-gradient-14"/><linearGradient id="linear-gradient-21" x1="-5083.83" y1="-5439.6" x2="-5083.83" y2="-5438" gradientTransform="translate(-1148.85 4117.92) rotate(59.06) scale(0.56)" xlink:href="#linear-gradient-14"/><linearGradient id="linear-gradient-22" x1="-5586.69" y1="-9505" x2="-5586.88" y2="-9503.18" gradientTransform="matrix(-1.16, 0.61, -0.61, -1.16, -12304.19, -7588.24)" xlink:href="#linear-gradient-2"/><linearGradient id="linear-gradient-23" x1="-6628.66" y1="-5053.28" x2="-6627.33" y2="-5053.66" gradientTransform="matrix(0.48, 0.33, -0.33, 0.48, 1496.01, 4572.09)" xlink:href="#linear-gradient-14"/><linearGradient id="linear-gradient-24" x1="-9488.18" y1="-6110.38" x2="-9487.92" y2="-6108.95" gradientTransform="translate(6287.71 1980.58) rotate(-16.01) scale(0.58)" xlink:href="#linear-gradient"/><linearGradient id="linear-gradient-25" x1="-8334.4" y1="-7699.73" x2="-8334.4" y2="-7698.14" gradientTransform="matrix(1.09, -0.54, 0.54, 1.09, 13272.08, 3954.96)" xlink:href="#linear-gradient-2"/><linearGradient id="linear-gradient-26" x1="-7282.62" y1="-10170.56" x2="-7282.99" y2="-10172.3" gradientTransform="translate(2202.33 -16536.35) rotate(-137.01) scale(1.34)" xlink:href="#linear-gradient-2"/><linearGradient id="linear-gradient-27" x1="-6842.45" y1="-9941.64" x2="-6842.64" y2="-9939.83" gradientTransform="translate(-2661.05 -19354.08) rotate(-153.29) scale(1.62)" xlink:href="#linear-gradient-11"/><linearGradient id="linear-gradient-28" x1="-8819.53" y1="-11985.51" x2="-8819.53" y2="-11983.92" gradientTransform="matrix(-0.28, -0.47, 0.47, -0.28, 3212.39, -7394.56)" xlink:href="#linear-gradient"/><linearGradient id="linear-gradient-29" x1="-8679.28" y1="-11914.46" x2="-8678.91" y2="-11912.16" gradientTransform="matrix(-0.3, -0.48, 0.48, -0.3, 3144.67, -7677.73)" xlink:href="#linear-gradient"/><linearGradient id="linear-gradient-30" x1="-9688.01" y1="-8962.52" x2="-9688.2" y2="-8960.71" gradientTransform="matrix(0.3, -0.68, 0.68, 0.3, 9026.08, -3912.02)" xlink:href="#linear-gradient-14"/><linearGradient id="linear-gradient-31" x1="-8618.56" y1="-10293.75" x2="-8619.4" y2="-10292.53" gradientTransform="translate(6996.96 -9559.12) rotate(-104.03) scale(0.88)" xlink:href="#linear-gradient-14"/><linearGradient id="linear-gradient-32" x1="-9408.88" y1="-6113.55" x2="-9408.9" y2="-6111.51" gradientTransform="matrix(0.57, -0.15, 0.15, 0.57, 6268.17, 2116.97)" xlink:href="#linear-gradient-14"/><linearGradient id="linear-gradient-33" x1="-5707.79" y1="-11242.63" x2="-5705.94" y2="-11242.35" gradientTransform="translate(-3442.82 -8529.19) rotate(-175.07) scale(0.73)" xlink:href="#linear-gradient-2"/><linearGradient id="linear-gradient-34" x1="-7119.28" y1="-5134.38" x2="-7120.11" y2="-5133.16" gradientTransform="matrix(0.53, 0.26, -0.26, 0.53, 2427.36, 4602.67)" xlink:href="#linear-gradient-11"/><linearGradient id="linear-gradient-35" x1="-4815.17" y1="-7478.45" x2="-4815.19" y2="-7476.41" gradientTransform="translate(-6454.33 4125.53) rotate(90.4) scale(0.86)" xlink:href="#linear-gradient-14"/><linearGradient id="linear-gradient-36" x1="-3947.73" y1="-9782.22" x2="-3947.88" y2="-9784.45" gradientTransform="matrix(-0.51, 0.42, -0.42, -0.51, -6062.4, -3293.8)" xlink:href="#linear-gradient-6"/><linearGradient id="linear-gradient-37" x1="-6368.39" y1="-10046.42" x2="-6368.41" y2="-10044.38" gradientTransform="matrix(-1.38, -0.19, 0.19, -1.38, -6828.8, -15061.94)" xlink:href="#linear-gradient-2"/><linearGradient id="linear-gradient-38" x1="-6368.86" y1="-10009.61" x2="-6368.88" y2="-10007.57" gradientTransform="matrix(-1.38, -0.19, 0.19, -1.38, -6828.8, -15061.94)" xlink:href="#linear-gradient-2"/><linearGradient id="linear-gradient-39" x1="-6831.77" y1="-9707.53" x2="-6831.77" y2="-9705.93" gradientTransform="translate(-4221.78 -23043.88) rotate(-155.21) scale(1.98)" xlink:href="#linear-gradient"/><linearGradient id="linear-gradient-40" x1="-5060.65" y1="-9847.5" x2="-5059.26" y2="-9847.5" gradientTransform="translate(-8583.73 -5917.22) rotate(152.08) scale(0.95)" xlink:href="#linear-gradient-11"/><linearGradient id="linear-gradient-41" x1="-3389.99" y1="-9387.42" x2="-3389.68" y2="-9385.63" gradientTransform="translate(-5310.49 -2102.87) rotate(131.33) scale(0.58)" xlink:href="#linear-gradient-14"/><linearGradient id="linear-gradient-42" x1="-9959.97" y1="-7088.25" x2="-9959.59" y2="-7085.95" gradientTransform="translate(7439.15 374.56) rotate(-32.88) scale(0.61)" xlink:href="#linear-gradient"/><linearGradient id="linear-gradient-43" x1="-8357.1" y1="-10959.02" x2="-8357.1" y2="-10957.43" gradientTransform="translate(4388.17 -9595.3) rotate(-118.43) scale(0.77)" xlink:href="#linear-gradient-6"/><linearGradient id="linear-gradient-44" x1="-7977.68" y1="-10099.92" x2="-7977.83" y2="-10102.15" gradientTransform="translate(7019.51 -13217.23) rotate(-113.85) scale(1.16)" xlink:href="#linear-gradient-6"/><linearGradient id="linear-gradient-45" x1="-7724.07" y1="-9477.05" x2="-7724.9" y2="-9475.83" gradientTransform="matrix(-0.5, -1.74, 1.74, -0.5, 12705.39, -18120.71)" xlink:href="#linear-gradient-2"/><linearGradient id="linear-gradient-46" x1="-9484.93" y1="-5965.42" x2="-9483.08" y2="-5965.14" gradientTransform="translate(5989.25 2005.05) rotate(-14.12) scale(0.56)" xlink:href="#linear-gradient-6"/><linearGradient id="linear-gradient-47" x1="-5342.43" y1="-9041.23" x2="-5342.57" y2="-9043.46" gradientTransform="translate(-13129 -2927.18) rotate(133.3) scale(1.29)" xlink:href="#linear-gradient-14"/><linearGradient id="linear-gradient-48" x1="-5556.83" y1="-9324.14" x2="-5556.53" y2="-9322.35" gradientTransform="translate(-13572.86 -6172.9) rotate(145.52) scale(1.38)" xlink:href="#linear-gradient-2"/><linearGradient id="linear-gradient-49" x1="-8248.5" y1="-9393.93" x2="-8249.33" y2="-9392.71" gradientTransform="matrix(0.01, -1.37, 1.37, 0.01, 13002.48, -11127.42)" xlink:href="#linear-gradient"/><linearGradient id="linear-gradient-50" x1="-7176.57" y1="-4662.55" x2="-7174.72" y2="-4662.27" gradientTransform="translate(2359.07 3874.54) rotate(25.82) scale(0.52)" xlink:href="#linear-gradient-14"/><linearGradient id="linear-gradient-51" x1="-7654.36" y1="-9522.53" x2="-7654.38" y2="-9520.48" gradientTransform="translate(11730.01 -19066.31) rotate(-109.69) scale(1.83)" xlink:href="#linear-gradient-2"/><linearGradient id="linear-gradient-52" x1="-2998.15" y1="-8401.34" x2="-2998.17" y2="-8399.3" gradientTransform="translate(-4654.23 -459.76) rotate(115.66) scale(0.53)" xlink:href="#linear-gradient-6"/><linearGradient id="linear-gradient-53" x1="-6229.86" y1="-5292.87" x2="-6229.6" y2="-5291.44" gradientTransform="matrix(0.46, 0.4, -0.4, 0.46, 730.91, 4927.03)" xlink:href="#linear-gradient-14"/><linearGradient id="linear-gradient-54" x1="-9253.55" y1="-9745.83" x2="-9252.22" y2="-9746.2" gradientTransform="translate(8502.06 -6807.48) rotate(-85.6) scale(0.81)" xlink:href="#linear-gradient-6"/><linearGradient id="linear-gradient-55" x1="-7378.74" y1="-10055.1" x2="-7378.44" y2="-10053.31" gradientTransform="matrix(-0.95, -1.05, 1.05, -0.95, 3623.88, -17218.7)" xlink:href="#linear-gradient-14"/><linearGradient id="linear-gradient-56" x1="-5817.6" y1="-4824.67" x2="-5817.62" y2="-4822.63" gradientTransform="translate(382.55 3977.54) rotate(45.53) scale(0.52)" xlink:href="#linear-gradient"/><linearGradient id="linear-gradient-57" x1="-7634" y1="-7508.79" x2="-7634.19" y2="-7506.98" gradientTransform="translate(12305.72 11100.28) rotate(-2.6) scale(1.54)" xlink:href="#linear-gradient-2"/><linearGradient id="linear-gradient-58" x1="-8170.43" y1="-5598.49" x2="-8170.75" y2="-5600.86" gradientTransform="matrix(0.63, 0.08, -0.08, 0.63, 4667.14, 4199.08)" xlink:href="#linear-gradient-14"/><linearGradient id="linear-gradient-59" x1="-6977.57" y1="-7536.89" x2="-6976.24" y2="-7537.26" gradientTransform="matrix(1.65, 0.82, -0.82, 1.65, 5445.89, 18168.64)" xlink:href="#linear-gradient-2"/><linearGradient id="linear-gradient-60" x1="-7439.84" y1="-7341.8" x2="-7439.58" y2="-7340.37" gradientTransform="matrix(1.46, 0.2, -0.2, 1.46, 9436.57, 12268.12)" xlink:href="#linear-gradient-2"/><linearGradient id="linear-gradient-61" x1="-5559.26" y1="-9723.37" x2="-5559.45" y2="-9721.56" gradientTransform="translate(-10663.03 -8252.92) rotate(157.68) scale(1.21)" xlink:href="#linear-gradient-2"/><linearGradient id="linear-gradient-62" x1="-8945.3" y1="-9422.58" x2="-8943.91" y2="-9422.58" gradientTransform="matrix(0.15, -0.95, 0.95, 0.15, 10275.02, -7059.56)" xlink:href="#linear-gradient-6"/><linearGradient id="linear-gradient-63" x1="-6802.32" y1="-10188.67" x2="-6802.51" y2="-10186.86" gradientTransform="translate(-2508.39 -16421.11) rotate(-154.99) scale(1.36)" xlink:href="#linear-gradient-6"/><linearGradient id="linear-gradient-64" x1="-3004.15" y1="-9164.57" x2="-3002.29" y2="-9164.29" gradientTransform="translate(-4806.86 -1630.85) rotate(127.24) scale(0.53)" xlink:href="#linear-gradient-11"/><linearGradient id="linear-gradient-65" x1="-9203.47" y1="-9590.91" x2="-9203.83" y2="-9592.65" gradientTransform="translate(9034.6 -6617.37) rotate(-82.84) scale(0.84)" xlink:href="#linear-gradient-11"/><linearGradient id="linear-gradient-66" x1="-10674.69" y1="-9623.74" x2="-10674.31" y2="-9621.44" gradientTransform="matrix(0.14, -0.52, 0.52, 0.14, 6540.59, -4162.61)" xlink:href="#linear-gradient-6"/><linearGradient id="linear-gradient-67" x1="-5646.68" y1="-10105.39" x2="-5645.29" y2="-10105.39" gradientTransform="matrix(-1.06, 0.22, -0.22, -1.06, -8156.07, -9404.11)" xlink:href="#linear-gradient-11"/><linearGradient id="linear-gradient-68" x1="-5658.29" y1="-10137.23" x2="-5656.9" y2="-10137.23" gradientTransform="matrix(-1.06, 0.22, -0.22, -1.06, -8156.07, -9404.11)" xlink:href="#linear-gradient-11"/><linearGradient id="linear-gradient-69" x1="-5276.53" y1="-6753.02" x2="-5276.72" y2="-6751.21" gradientTransform="translate(-3772.9 6100.1) rotate(70.13) scale(0.83)" xlink:href="#linear-gradient-6"/><linearGradient id="linear-gradient-70" x1="-5229.18" y1="-8735.06" x2="-5229.37" y2="-8733.25" gradientTransform="matrix(-0.66, 1.04, -1.04, -0.66, -12537.93, -317.49)" xlink:href="#linear-gradient-11"/><linearGradient id="linear-gradient-71" x1="-4220.95" y1="-10174.33" x2="-4220.95" y2="-10172.74" gradientTransform="translate(-5937.8 -4414.96) rotate(149.21) scale(0.67)" xlink:href="#linear-gradient-6"/><linearGradient id="linear-gradient-72" x1="-6141.25" y1="-7727.23" x2="-6142.08" y2="-7726.01" gradientTransform="matrix(0.6, 1.61, -1.61, 0.6, -8659.04, 14539.56)" xlink:href="#linear-gradient-2"/><linearGradient id="linear-gradient-73" x1="-5505.77" y1="-9303.85" x2="-5506.13" y2="-9305.59" gradientTransform="translate(-13299.39 -5752.59) rotate(144.2) scale(1.34)" xlink:href="#linear-gradient-11"/><linearGradient id="linear-gradient-74" x1="-8224.36" y1="-9588.76" x2="-8224.55" y2="-9586.95" gradientTransform="translate(11330.63 -11853.96) rotate(-95.93) scale(1.3)" xlink:href="#linear-gradient-2"/><linearGradient id="linear-gradient-75" x1="-7906.84" y1="-5730.43" x2="-7905.94" y2="-5728.71" gradientTransform="translate(4565.61 4873) rotate(10.71) scale(0.68)" xlink:href="#linear-gradient-2"/><linearGradient id="linear-gradient-76" x1="-7607.74" y1="-7382.84" x2="-7607.48" y2="-7381.41" gradientTransform="translate(10666.01 10914.96) rotate(1.53) scale(1.44)" xlink:href="#linear-gradient-2"/><linearGradient id="linear-gradient-77" x1="-8308.16" y1="-8888.28" x2="-8307.78" y2="-8885.98" gradientTransform="translate(16622.82 -7023.18) rotate(-70.02) scale(1.48)" xlink:href="#linear-gradient-6"/><linearGradient id="linear-gradient-78" x1="-8150.1" y1="-11440.56" x2="-8150.1" y2="-11438.97" gradientTransform="translate(2963.57 -9082.77) rotate(-126.7) scale(0.69)" xlink:href="#linear-gradient-6"/><linearGradient id="linear-gradient-79" x1="-9041.05" y1="-9176.93" x2="-9041.36" y2="-9179.3" gradientTransform="translate(10838.61 -6011.88) rotate(-74.92) scale(0.96)" xlink:href="#linear-gradient-2"/><linearGradient id="linear-gradient-80" x1="-10745.65" y1="-7335.18" x2="-10744.75" y2="-7333.46" gradientTransform="translate(6660.62 -765.87) rotate(-41.55) scale(0.52)" xlink:href="#linear-gradient-2"/><linearGradient id="linear-gradient-81" x1="-9826.76" y1="-10056.97" x2="-9825.86" y2="-10055.25" gradientTransform="matrix(0.05, -0.64, 0.64, 0.05, 6951.51, -5832.74)" xlink:href="#linear-gradient"/><linearGradient id="linear-gradient-82" x1="-3570.51" y1="-7736.34" x2="-3570.66" y2="-7738.56" gradientTransform="translate(-5025.14 1008.36) rotate(104.17) scale(0.6)" xlink:href="#linear-gradient-11"/><linearGradient id="linear-gradient-83" x1="-3932.14" y1="-6650.73" x2="-3930.75" y2="-6650.73" gradientTransform="translate(-3671.44 2564) rotate(85.95) scale(0.58)" xlink:href="#linear-gradient-6"/><linearGradient id="linear-gradient-84" x1="-4867.5" y1="-10238.04" x2="-4867.12" y2="-10235.73" gradientTransform="translate(-6761.3 -6130.21) rotate(157.64) scale(0.81)" xlink:href="#linear-gradient-2"/><linearGradient id="linear-gradient-85" x1="-3215.02" y1="-8562.87" x2="-3215.17" y2="-8565.1" gradientTransform="translate(-5006.53 -616.05) rotate(117.77) scale(0.56)" xlink:href="#linear-gradient-6"/><linearGradient id="linear-gradient-86" x1="-5050.69" y1="-5398.63" x2="-5049.3" y2="-5398.63" gradientTransform="matrix(0.28, 0.48, -0.48, 0.28, -1158.96, 3977.97)" xlink:href="#linear-gradient-6"/><linearGradient id="linear-gradient-87" x1="-5795.2" y1="-10360.73" x2="-5794.29" y2="-10359.01" gradientTransform="matrix(-1.02, 0.07, -0.07, -1.02, -6585.25, -10118.02)" xlink:href="#linear-gradient"/><linearGradient id="linear-gradient-88" x1="-6155.34" y1="-10086.04" x2="-6155.04" y2="-10084.25" gradientTransform="matrix(-1.29, -0.02, 0.02, -1.29, -7626.15, -13150.84)" xlink:href="#linear-gradient"/><linearGradient id="linear-gradient-89" x1="-4919.84" y1="-7380.98" x2="-4920.67" y2="-7379.76" gradientTransform="translate(-6187.93 4678.58) rotate(87.04) scale(0.88)" xlink:href="#linear-gradient"/><linearGradient id="linear-gradient-90" x1="-5504.8" y1="-6770.75" x2="-5503.41" y2="-6770.75" gradientTransform="matrix(0.35, 0.81, -0.81, 0.35, -3485.98, 6879.34)" xlink:href="#linear-gradient-14"/><linearGradient id="linear-gradient-91" x1="-5684.07" y1="-11728.14" x2="-5682.21" y2="-11727.86" gradientTransform="matrix(-0.63, -0.08, 0.08, -0.63, -2560.99, -7718.24)" xlink:href="#linear-gradient-2"/><linearGradient id="linear-gradient-92" x1="-3593.87" y1="-7886.02" x2="-3593.89" y2="-7883.98" gradientTransform="translate(-5210.14 796.3) rotate(106.46) scale(0.61)" xlink:href="#linear-gradient-14"/><linearGradient id="linear-gradient-93" x1="-7674.51" y1="-6094.55" x2="-7673.6" y2="-6092.83" gradientTransform="translate(4731.17 6043.27) rotate(13.37) scale(0.78)" xlink:href="#linear-gradient-11"/><linearGradient id="linear-gradient-94" x1="-4036.23" y1="-7925.78" x2="-4035.93" y2="-7923.99" gradientTransform="matrix(-0.18, 0.68, -0.68, -0.18, -6103.94, 1325.19)" xlink:href="#linear-gradient-2"/><linearGradient id="linear-gradient-95" x1="-6999.13" y1="-10482.81" x2="-6999.96" y2="-10481.6" gradientTransform="translate(-381.38 -14322.37) rotate(-147.87) scale(1.14)" xlink:href="#linear-gradient-6"/><linearGradient id="linear-gradient-96" x1="-8845.62" y1="-11051.81" x2="-8844.28" y2="-11052.19" gradientTransform="translate(4804.77 -8265.68) rotate(-111.32) scale(0.68)" xlink:href="#linear-gradient"/><linearGradient id="linear-gradient-97" x1="-4243.85" y1="-7058.81" x2="-4243.85" y2="-7057.22" gradientTransform="matrix(0.02, 0.67, -0.67, 0.02, -4587.89, 3040.8)" xlink:href="#linear-gradient-14"/></defs><title>confetti</title><g id="Layer_2" data-name="Layer 2"><g id="Layer_1-2" data-name="Layer 1"><path class="cls-1" d="M39.83,61.57a1.2,1.2,0,0,0,1-.23,7.63,7.63,0,0,1,0-1.72,1,1,0,0,1-.55,0A6.45,6.45,0,0,1,39.83,61.57Z"/><path class="cls-2" d="M23,36.66a2.64,2.64,0,0,1,1,.14.88.88,0,0,0,0-.53,3.57,3.57,0,0,0-1-.2C23.15,36.33,23.16,36.48,23,36.66Z"/><path class="cls-3" d="M.08,35.38a1.69,1.69,0,0,1,.6,1A5.76,5.76,0,0,0,2,35a2.59,2.59,0,0,0-.89-.71A3.35,3.35,0,0,1,.08,35.38Z"/><path class="cls-4" d="M11.39,95.24a1.69,1.69,0,0,0,.74,1.18,9.78,9.78,0,0,1,2.25-.81,1.5,1.5,0,0,1-.28-.72A9.17,9.17,0,0,1,11.39,95.24Z"/><path class="cls-5" d="M4.49,59.1a1,1,0,0,1-.83-.66,3.47,3.47,0,0,0-.59,1.43,1,1,0,0,0,.79.53A2.53,2.53,0,0,1,4.49,59.1Z"/><path class="cls-6" d="M78.75,85.6a2.81,2.81,0,0,0-2.21-1.75A4.22,4.22,0,0,0,74.81,86a6.44,6.44,0,0,1,1.41,3.26A11.16,11.16,0,0,1,78.75,85.6Z"/><path class="cls-7" d="M8.63,59.32a1.77,1.77,0,0,0,1.6-.65,2.64,2.64,0,0,0-.65-1.58,4,4,0,0,1-2.16-.21A6.58,6.58,0,0,1,8.63,59.32Z"/><path class="cls-8" d="M58.78,60.31A2.78,2.78,0,0,0,60,59.53a1.4,1.4,0,0,0-.49-.74,2.48,2.48,0,0,1-1.22.77A.89.89,0,0,1,58.78,60.31Z"/><path class="cls-9" d="M26.65,47.15a1.15,1.15,0,0,1,1.11-.36,3.7,3.7,0,0,0-1-1.41,1,1,0,0,0-1,.4A2.74,2.74,0,0,1,26.65,47.15Z"/><path class="cls-10" d="M71,28.28a1,1,0,0,0,0-.84,6.27,6.27,0,0,1-1.44-.22.93.93,0,0,1-.06.47A5.58,5.58,0,0,1,71,28.28Z"/><path class="cls-11" d="M37.59,57.93a1.26,1.26,0,0,0,.44-.65,1.31,1.31,0,0,1-.72-.4,1.72,1.72,0,0,0-.52.55A2.31,2.31,0,0,1,37.59,57.93Z"/><path class="cls-12" d="M16.61,4.69a1.09,1.09,0,0,0,.33,1,1.65,1.65,0,0,0,1-.32,2.51,2.51,0,0,1,.26-1.37A4.45,4.45,0,0,1,16.61,4.69Z"/><path class="cls-13" d="M5.43,2.66a3.24,3.24,0,0,1-.16-1.24,1,1,0,0,0-.64.14,4.36,4.36,0,0,0,.08,1.29C5,2.63,5.17,2.56,5.43,2.66Z"/><path class="cls-14" d="M24.88,41.68a.77.77,0,0,1,.32.52,6.05,6.05,0,0,0,1.41-1,1.39,1.39,0,0,0-.39-.65A3.39,3.39,0,0,1,24.88,41.68Z"/><path class="cls-15" d="M27.49,74.2A3,3,0,0,0,29,73.64a1.49,1.49,0,0,0-.36-.92,2.77,2.77,0,0,1-1.51.54A1,1,0,0,1,27.49,74.2Z"/><path class="cls-16" d="M22.23,79.69a2.64,2.64,0,0,0,2.09.77,17,17,0,0,1,2-3.25,2.39,2.39,0,0,1-1.06-.62A14.56,14.56,0,0,1,22.23,79.69Z"/><path class="cls-17" d="M21.64,11.16a4.47,4.47,0,0,0-1.48-.61,1.87,1.87,0,0,0,.05,1,1.58,1.58,0,0,1,.92.36A1,1,0,0,1,21.64,11.16Z"/><path class="cls-18" d="M26.21,73.42a1.56,1.56,0,0,1-.89-1,12.68,12.68,0,0,0-2.5,2.63,3,3,0,0,0,1.08,1.18A7.17,7.17,0,0,1,26.21,73.42Z"/><path class="cls-19" d="M38.66,60.11a2,2,0,0,1-.47-2,6.46,6.46,0,0,0-2.57,1.46,1.83,1.83,0,0,0,.56,1.72A4.88,4.88,0,0,1,38.66,60.11Z"/><path class="cls-20" d="M70.35,48.64a1.17,1.17,0,0,1-1-.13,9.44,9.44,0,0,0-.25,2.68,2.24,2.24,0,0,0,1.18.19A5.3,5.3,0,0,1,70.35,48.64Z"/><path class="cls-21" d="M6.56,84.49c-.18,0-.28.14-.43.32A4.64,4.64,0,0,1,7.2,86.17a.79.79,0,0,1,.45-.24A4.23,4.23,0,0,0,6.56,84.49Z"/><path class="cls-22" d="M43.26,37.88a1.83,1.83,0,0,1-.36-1.83,6,6,0,0,0-2.41,1.25,1.67,1.67,0,0,0,.45,1.6A4.32,4.32,0,0,1,43.26,37.88Z"/><path class="cls-23" d="M2,1.08a2.66,2.66,0,0,1-.36,1,.85.85,0,0,0,.55.15,3.71,3.71,0,0,0,.44-1C2.36,1.28,2.2,1.26,2,1.08Z"/><path class="cls-24" d="M33.63,96.06a.64.64,0,0,1,.18.48A5,5,0,0,0,35.1,96a1.17,1.17,0,0,0-.21-.59A2.75,2.75,0,0,1,33.63,96.06Z"/><path class="cls-25" d="M19.47,2.09a1.63,1.63,0,0,0,.61,1A10.25,10.25,0,0,1,23.21,1a1.7,1.7,0,0,1-.44-1A9.16,9.16,0,0,0,19.47,2.09Z"/><path class="cls-26" d="M48.68,77.52a2.54,2.54,0,0,0,.79-2,15.5,15.5,0,0,1-3.09-2.05,2.37,2.37,0,0,1-.63,1A14.37,14.37,0,0,1,48.68,77.52Z"/><path class="cls-27" d="M5.61,26.79a2.27,2.27,0,0,1,1.58-1.67,7.6,7.6,0,0,0-3-1.53,2.06,2.06,0,0,0-1.28,1.6A5.37,5.37,0,0,1,5.61,26.79Z"/><path class="cls-28" d="M16.66,42.54c.17,0,.27-.14.42-.31a4.47,4.47,0,0,1-1-1.32.81.81,0,0,1-.44.23A4,4,0,0,0,16.66,42.54Z"/><path class="cls-29" d="M67.76,37.28a1.36,1.36,0,0,1,.85-.44,4.66,4.66,0,0,0-1.07-1.1,2,2,0,0,0-.61.68A2.73,2.73,0,0,1,67.76,37.28Z"/><path class="cls-30" d="M32.84,23.79a1,1,0,0,1,.81.68,3.56,3.56,0,0,0,.62-1.4.94.94,0,0,0-.76-.55A2.5,2.5,0,0,1,32.84,23.79Z"/><path class="cls-31" d="M23.31,28.52a2.89,2.89,0,0,1,.57-1.65.85.85,0,0,1-.51-.41,3.56,3.56,0,0,0-.79,1.77A1.45,1.45,0,0,0,23.31,28.52Z"/><path class="cls-32" d="M15.09,85.84a.83.83,0,0,0,.2.8,1.24,1.24,0,0,0,.8-.19,1.94,1.94,0,0,1,.26-1A3.4,3.4,0,0,1,15.09,85.84Z"/><path class="cls-33" d="M4.15,11.36a5.17,5.17,0,0,0,.58-1.8,2.18,2.18,0,0,0-1.13.16,1.79,1.79,0,0,1-.34,1.1A1.2,1.2,0,0,1,4.15,11.36Z"/><path class="cls-34" d="M18.48,7.69a2,2,0,0,1,.59,1,.51.51,0,0,1,.43-.07,2.34,2.34,0,0,0-.56-1.18A1,1,0,0,0,18.48,7.69Z"/><path class="cls-35" d="M35.53,10.44a1.21,1.21,0,0,0-1.22,0,1.81,1.81,0,0,0,0,1.21,2.76,2.76,0,0,1,1.35.77A4.92,4.92,0,0,1,35.53,10.44Z"/><path class="cls-36" d="M18.56,28.27c-.06-.31-.26-.5-.63-.72a3.92,3.92,0,0,1-1.28,1.16,1.46,1.46,0,0,1,.55.82A4.52,4.52,0,0,0,18.56,28.27Z"/><path class="cls-37" d="M67.54,62.92a2,2,0,0,0,.32-2,3,3,0,0,0-1.94-.32,4.49,4.49,0,0,1-1.51,2A7.75,7.75,0,0,1,67.54,62.92Z"/><path class="cls-38" d="M75.22,12.06a2,2,0,0,0,.32-2,3,3,0,0,0-1.94-.31,4.47,4.47,0,0,1-1.51,2A7.75,7.75,0,0,1,75.22,12.06Z"/><path class="cls-39" d="M6,86.43a2.71,2.71,0,0,0,.62-1.79,16.89,16.89,0,0,1-5.8-1.83A2.76,2.76,0,0,1,0,84.4,15,15,0,0,0,6,86.43Z"/><path class="cls-40" d="M9.23,73.39a3.58,3.58,0,0,0-.82-1.69,1.78,1.78,0,0,0-1,.52,3.15,3.15,0,0,1,.8,1.67A1.19,1.19,0,0,1,9.23,73.39Z"/><path class="cls-41" d="M42.87,2.37a1.43,1.43,0,0,0-.75-.5,1.52,1.52,0,0,1-.44.83,2,2,0,0,0,.63.59A2.71,2.71,0,0,1,42.87,2.37Z"/><path class="cls-42" d="M.9,42.18a1.47,1.47,0,0,1,.49.91,5.35,5.35,0,0,0,1.18-1.17,2.2,2.2,0,0,0-.75-.65A3.14,3.14,0,0,1,.9,42.18Z"/><path class="cls-43" d="M42.81,56.53a1,1,0,0,0,.6-.42A6.43,6.43,0,0,1,42,54.2a1.07,1.07,0,0,1-.63.3A5.79,5.79,0,0,0,42.81,56.53Z"/><path class="cls-44" d="M23.77,25.13a1.86,1.86,0,0,0,1.52-.73,6.75,6.75,0,0,1-1.37-2.74,2.48,2.48,0,0,1-1.66.56A7.87,7.87,0,0,0,23.77,25.13Z"/><path class="cls-45" d="M60.2,80.06a6.11,6.11,0,0,1,1-3.42,1.7,1.7,0,0,1-1.06-.82,7.41,7.41,0,0,0-1.5,3.7A3,3,0,0,0,60.2,80.06Z"/><path class="cls-46" d="M16.41,58.45a4,4,0,0,0,0,1.44,1.58,1.58,0,0,0,.78-.39,1.4,1.4,0,0,1,0-.89A.93.93,0,0,1,16.41,58.45Z"/><path class="cls-47" d="M55.64,48.68c-.19-.59-.61-.91-1.4-1.24A7.42,7.42,0,0,1,52,50a2.75,2.75,0,0,1,1.28,1.45A8.82,8.82,0,0,0,55.64,48.68Z"/><path class="cls-48" d="M12.24,82.29a3.3,3.3,0,0,0-1.44-1.6,3.62,3.62,0,0,1-1.51,1.67A5.19,5.19,0,0,0,10.4,84.1,6.62,6.62,0,0,1,12.24,82.29Z"/><path class="cls-49" d="M39.59,76.06a4.59,4.59,0,0,1,1.49-2.26,1.31,1.31,0,0,1-.59-.82,5.49,5.49,0,0,0-1.88,2.36A2.38,2.38,0,0,0,39.59,76.06Z"/><path class="cls-50" d="M51.77,59a3.85,3.85,0,0,0-.85,1,1.59,1.59,0,0,0,.8.19,1.34,1.34,0,0,1,.5-.66A.82.82,0,0,1,51.77,59Z"/><path class="cls-51" d="M17.83,37.82A2.59,2.59,0,0,0,20.3,37a3.92,3.92,0,0,0-.81-2.45A6,6,0,0,1,16.25,34,10.27,10.27,0,0,1,17.83,37.82Z"/><path class="cls-52" d="M60,36.74a.77.77,0,0,0-.67-.35,1.13,1.13,0,0,0-.34.67,1.7,1.7,0,0,1,.54.78A3.06,3.06,0,0,1,60,36.74Z"/><path class="cls-53" d="M16.38,13.47a.68.68,0,0,1-.32.43,5.39,5.39,0,0,0,1.24.81,1.19,1.19,0,0,0,.4-.52A2.9,2.9,0,0,1,16.38,13.47Z"/><path class="cls-54" d="M61.81,55a3.59,3.59,0,0,1,1.49-.28,1.24,1.24,0,0,0-.21-.77,5.42,5.42,0,0,0-1.55.19C61.82,54.48,61.91,54.7,61.81,55Z"/><path class="cls-55" d="M23.15,59.54a3.46,3.46,0,0,0,1.43-1.68,3.7,3.7,0,0,1-1.9-1.32,5.11,5.11,0,0,0-1.62,1.37A6.87,6.87,0,0,1,23.15,59.54Z"/><path class="cls-56" d="M51.11,38.33a.75.75,0,0,0-.54.51,1.15,1.15,0,0,0,.5.54,1.71,1.71,0,0,1,.91-.25A2.77,2.77,0,0,1,51.11,38.33Z"/><path class="cls-57" d="M29.24,76.41a2.14,2.14,0,0,1-.53,2.12,7,7,0,0,0,3.18-.12,2,2,0,0,0,.32-1.92A5,5,0,0,1,29.24,76.41Z"/><path class="cls-58" d="M17.53,18.31a2.14,2.14,0,0,1-.13.94,6.85,6.85,0,0,1,1.88-.08,1.26,1.26,0,0,0,.23-.88A8.22,8.22,0,0,0,17.53,18.31Z"/><path class="cls-59" d="M58.41,7.42a9,9,0,0,1-.68,3.39,2.88,2.88,0,0,0,1.79.21,11.48,11.48,0,0,0,.92-3.43C59.52,7.9,59,7.91,58.41,7.42Z"/><path class="cls-60" d="M17.41,73.37a1.55,1.55,0,0,1-.06,1.29,12.47,12.47,0,0,0,3.61,0,2.89,2.89,0,0,0,.09-1.59A7.16,7.16,0,0,1,17.41,73.37Z"/><path class="cls-61" d="M14.15,64.32a1.69,1.69,0,0,1-.17-1.7,5.4,5.4,0,0,0-2.31.92,1.53,1.53,0,0,0,.27,1.51A4,4,0,0,1,14.15,64.32Z"/><path class="cls-62" d="M6.07,77.81A3.53,3.53,0,0,0,8,78.15,1.78,1.78,0,0,0,8.14,77a3.2,3.2,0,0,1-1.85-.36A1.22,1.22,0,0,1,6.07,77.81Z"/><path class="cls-63" d="M25.24,96.52a1.9,1.9,0,0,1,1.29-1.45A6.33,6.33,0,0,0,24,93.86a1.74,1.74,0,0,0-1,1.38A4.47,4.47,0,0,1,25.24,96.52Z"/><path class="cls-64" d="M9.7,36.79a3.86,3.86,0,0,0-.88-1,1.6,1.6,0,0,0-.34.76,1.27,1.27,0,0,1,.54.63A.9.9,0,0,1,9.7,36.79Z"/><path class="cls-65" d="M27.87,85.67a1.61,1.61,0,0,0,1.32-.34A9.68,9.68,0,0,1,29.1,83a1.34,1.34,0,0,1-.75.05A9,9,0,0,1,27.87,85.67Z"/><path class="cls-66" d="M57.33,45.72a1.26,1.26,0,0,1,.86.31,4.36,4.36,0,0,0,.08-1.47,2.2,2.2,0,0,0-.88,0A2.42,2.42,0,0,1,57.33,45.72Z"/><path class="cls-67" d="M48.37,63.57A4.06,4.06,0,0,0,48,61.46a1.94,1.94,0,0,0-1.28.25,3.66,3.66,0,0,1,.35,2.08A1.4,1.4,0,0,1,48.37,63.57Z"/><path class="cls-68" d="M67.67,94.76a4.06,4.06,0,0,0-.37-2.11A1.94,1.94,0,0,0,66,92.9,3.66,3.66,0,0,1,66.37,95,1.37,1.37,0,0,1,67.67,94.76Z"/><path class="cls-69" d="M11.25,73.26a1.15,1.15,0,0,1-1.17.07,3.78,3.78,0,0,0,.57,1.61,1,1,0,0,0,1-.14A2.77,2.77,0,0,1,11.25,73.26Z"/><path class="cls-70" d="M27.7,27.63a1.75,1.75,0,0,1-1.15-1.33,5.74,5.74,0,0,0-1.38,2.14,1.59,1.59,0,0,0,1.11,1.1A4.05,4.05,0,0,1,27.7,27.63Z"/><path class="cls-71" d="M18.82,20.45c0-.22-.17-.33-.38-.52a5.79,5.79,0,0,1-1.63,1.28.92.92,0,0,1,.29.54A5.06,5.06,0,0,0,18.82,20.45Z"/><path class="cls-72" d="M46.82,22a5.84,5.84,0,0,1-.73,3.31,1.53,1.53,0,0,1,1.06.69,6.92,6.92,0,0,0,1.13-3.61A2.83,2.83,0,0,0,46.82,22Z"/><path class="cls-73" d="M13.77,58.57A2.53,2.53,0,0,0,12,57.4,15.64,15.64,0,0,1,9.32,60a2.35,2.35,0,0,1,.88.82A13.94,13.94,0,0,1,13.77,58.57Z"/><path class="cls-74" d="M47.83,56.44a1.82,1.82,0,0,1,1.81.34,5.91,5.91,0,0,0-.26-2.66,1.64,1.64,0,0,0-1.63-.18A4.3,4.3,0,0,1,47.83,56.44Z"/><path class="cls-75" d="M36.93,78.21a2.21,2.21,0,0,0,1,.87,3.43,3.43,0,0,1,1-.26c-.24-.21-.28-.43-.2-.89A5.49,5.49,0,0,1,36.93,78.21Z"/><path class="cls-76" d="M7.14,7.51a1.46,1.46,0,0,1,.08,1.26,12.3,12.3,0,0,0,3.5-.4,2.88,2.88,0,0,0-.07-1.55A7,7,0,0,1,7.14,7.51Z"/><path class="cls-77" d="M64,36a3.52,3.52,0,0,1,2.28,1,12.46,12.46,0,0,0,.57-4,5.57,5.57,0,0,0-2.41-.16A7,7,0,0,1,64,36Z"/><path class="cls-78" d="M15.11,83.18c.21-.06.32-.2.48-.44a5.71,5.71,0,0,1-1.46-1.51,1,1,0,0,1-.52.34A5.22,5.22,0,0,0,15.11,83.18Z"/><path class="cls-79" d="M53.65,87.8a3.44,3.44,0,0,1,1.38.39,10.6,10.6,0,0,1,.26-2.85A1.87,1.87,0,0,0,54,84.82,12.21,12.21,0,0,0,53.65,87.8Z"/><path class="cls-80" d="M11.47,78.84a1.71,1.71,0,0,0,1-.22,2.63,2.63,0,0,1,.28-.7c-.24,0-.39,0-.63-.29A4.23,4.23,0,0,1,11.47,78.84Z"/><path class="cls-81" d="M14.23,26.81A2.12,2.12,0,0,0,15,25.72a3.06,3.06,0,0,1-.35-.88c-.18.26-.38.31-.82.29A5.61,5.61,0,0,1,14.23,26.81Z"/><path class="cls-82" d="M9.24,65.25a1,1,0,0,0-.86-.18,3.39,3.39,0,0,1-.31,1.55,1.24,1.24,0,0,1,.85.3A4.08,4.08,0,0,0,9.24,65.25Z"/><path class="cls-83" d="M14.73,17a2.1,2.1,0,0,0-1.15,0,1.05,1.05,0,0,0,0,.69,2,2,0,0,1,1.13,0A.75.75,0,0,1,14.73,17Z"/><path class="cls-84" d="M4.48,6.73a1.89,1.89,0,0,1-.41-1.3A6.65,6.65,0,0,0,2.25,6.67a3.05,3.05,0,0,0,.82,1A3.92,3.92,0,0,1,4.48,6.73Z"/><path class="cls-85" d="M60.1,23a.92.92,0,0,0-.73-.35A3.26,3.26,0,0,1,58.75,24a1.19,1.19,0,0,1,.71.46A4,4,0,0,0,60.1,23Z"/><path class="cls-86" d="M11.93,42.11a2,2,0,0,0-1,.53,1,1,0,0,0,.33.58,1.87,1.87,0,0,1,1-.51A.68.68,0,0,1,11.93,42.11Z"/><path class="cls-87" d="M63,45.75a3.28,3.28,0,0,0-1.87-.88,4.74,4.74,0,0,1-1.29.75c.44.21.57.53.64,1.22A8.56,8.56,0,0,1,63,45.75Z"/><path class="cls-88" d="M67,15.65a3.1,3.1,0,0,0-.22-2,3.37,3.37,0,0,1-2.07.45A4.79,4.79,0,0,0,64.66,16,6.27,6.27,0,0,1,67,15.65Z"/><path class="cls-89" d="M46.94,39.26a3,3,0,0,1-.87,1.49.82.82,0,0,1,.41.5,3.53,3.53,0,0,0,1.11-1.58A1.5,1.5,0,0,0,46.94,39.26Z"/><path class="cls-90" d="M51,12.88a3.29,3.29,0,0,0-1.64.66,1.61,1.61,0,0,0,.42,1,2.9,2.9,0,0,1,1.61-.63A1.11,1.11,0,0,1,51,12.88Z"/><path class="cls-91" d="M23.48,81.48A4.53,4.53,0,0,0,24,80a2,2,0,0,0-1,.09,1.56,1.56,0,0,1-.33.94A1.08,1.08,0,0,1,23.48,81.48Z"/><path class="cls-92" d="M36,54.44a.86.86,0,0,0-.83-.26,1.3,1.3,0,0,0-.26.82,2,2,0,0,1,.77.78A3.33,3.33,0,0,1,36,54.44Z"/><path class="cls-93" d="M3.74,31.26A2.55,2.55,0,0,0,4.9,32.32,3.8,3.8,0,0,1,6,32.07c-.28-.25-.3-.51-.2-1A6.81,6.81,0,0,1,3.74,31.26Z"/><path class="cls-94" d="M7.37,57.94a1.73,1.73,0,0,0-1.09-.15,1.76,1.76,0,0,1,0,1.15,2.44,2.44,0,0,0,1,.31A3.33,3.33,0,0,1,7.37,57.94Z"/><path class="cls-95" d="M20.87,54.51a3.87,3.87,0,0,1-.95-2,1,1,0,0,1-.84.06,4.72,4.72,0,0,0,.85,2.37A1.92,1.92,0,0,0,20.87,54.51Z"/><path class="cls-96" d="M3.27,46.71a3.36,3.36,0,0,1,1-.76,1.06,1.06,0,0,0-.43-.5,4.35,4.35,0,0,0-1.11.7C3.09,46.3,3.24,46.43,3.27,46.71Z"/><path class="cls-97" d="M65.81,74.41a.85.85,0,0,0-.63.08,5.86,5.86,0,0,1,.31,2,.91.91,0,0,1,.61,0A5,5,0,0,0,65.81,74.41Z"/></g></g></svg>